HIERARCHY
ROOT pelvis
{
  OFFSET 0 100 0
  CHANNELS 6 Xposition Yposition Zposition Zrotation Xrotation Yrotation
  JOINT pelvis_right_femur
  {
    OFFSET -10.78128 -3.44521 -0.5502486
    CHANNELS 3 Zrotation Xrotation Yrotation
    JOINT right_femur_tibia
    {
      OFFSET -0.8047443 -44.0398 -0.1307829
      CHANNELS 3 Zrotation Xrotation Yrotation
      JOINT right_tibia_foot
      {
        OFFSET 3.006224 -47.83518 -5
        CHANNELS 3 Zrotation Xrotation Yrotation
        End Site
        {
          OFFSET 0 -5 15
        }
      }
    }
  }
  JOINT pelvis_left_femur
  {
    OFFSET 10.78128 -3.44521 -0.5502486
    CHANNELS 3 Zrotation Xrotation Yrotation
    JOINT left_femur_tibia
    {
      OFFSET 0.8047443 -44.0398 -0.1307829
      CHANNELS 3 Zrotation Xrotation Yrotation
      JOINT left_tibia_foot
      {
        OFFSET -4.370144 -48.10324 -4.275266
        CHANNELS 3 Zrotation Xrotation Yrotation
        End Site
        {
          OFFSET 0 -5 15
        }
      }
    }
  }
  JOINT pelvis_spine1
  {
    OFFSET 0 6.468898 -3.129235
    CHANNELS 3 Zrotation Xrotation Yrotation
    JOINT spine1
    {
      OFFSET 0 23.15396 4.99043
      CHANNELS 3 Zrotation Xrotation Yrotation
      JOINT spine2
      {
        OFFSET 0 20.79997 -5.064912
        CHANNELS 3 Zrotation Xrotation Yrotation
        JOINT neck
        {
          OFFSET 0 14.38658 9.616178
          CHANNELS 3 Zrotation Xrotation Yrotation
          End Site
          {
            OFFSET 0 20 0
          }
        }
      }
      JOINT right_manubrium
      {
        OFFSET -5.722621 16.35077 3.967754
        CHANNELS 3 Zrotation Xrotation Yrotation
        JOINT right_clavicle
        {
          OFFSET -13.16364 1.694482 -4.693211
          CHANNELS 3 Zrotation Xrotation Yrotation
          JOINT right_humerus
          {
            OFFSET -28.5034 -0.3100689 -2.792744
            CHANNELS 3 Zrotation Xrotation Yrotation
            JOINT right_radius
            {
              OFFSET -25.15693 0.02248979 -1.271978
              CHANNELS 3 Zrotation Xrotation Yrotation
              End Site
              {
                OFFSET -15 0 0
              }
            }
          }
        }
      }
      JOINT left_manubrium
      {
        OFFSET 5.722621 16.35077 3.967754
        CHANNELS 3 Zrotation Xrotation Yrotation
        JOINT left_clavicle
        {
          OFFSET 13.16364 1.694482 -4.693211
          CHANNELS 3 Zrotation Xrotation Yrotation
          JOINT left_humerus
          {
            OFFSET 29.39168 -1.063119 -2.237045
            CHANNELS 3 Zrotation Xrotation Yrotation
            JOINT left_radius
            {
              OFFSET 24.59957 -0.9528479 0.9047498
              CHANNELS 3 Zrotation Xrotation Yrotation
              End Site
              {
                OFFSET 15 -0 -0
              }
            }
          }
        }
      }
    }
  }
}
MOTION
Frames: 17
Frame Time: 0.0416666666667
0 103.5113 0 0.8404035 -1.95089 0.04408471 3.764557 -15.89112 8.204799 -0 35.76738 -0 -6.211797 -15.65036 -4.21892 -6.426502 11.12162 -22.41382 -0 5.224547 -0 8.161 -16.49484 25.48088 -1.7476 -2.162898 5.231495 2.910436 10.05291 -7.637417 1.178154 22.08997 5.705834 2.043757 -26.58788 9.00509 3.646757 -20.39793 11.94104 86.8455 33.11387 -17.6505 -0 0 15.88817 -10.32038 8.003415 4.637835 5.663463 -20.01285 0.3479673 -94.74699 20.7867 24.27141 0 0 -7.105657 13.50971 16.15797 -4.548503
0.2558446 103.4934 1.680149 0.6956188 -0.9723866 0.06825948 4.131096 -19.80751 8.397235 -0 35.37368 -0 -5.618068 -14.6077 -3.853565 -6.621121 12.29541 -22.5995 -0 5.263198 -0 7.700209 -18.27091 25.42543 -1.728871 -2.132788 5.113153 2.922163 10.17236 -7.721287 1.190428 21.87018 5.979436 2.303107 -26.55645 9.107327 3.846091 -20.05237 11.94827 87.20654 33.31008 -18.36218 -0 0 15.17943 -10.1299 8.170532 4.596288 5.828087 -20.34561 0.03184162 -94.20317 20.87273 23.34185 0 0 -9.003531 13.362 15.68279 -3.996957
0.4968304 103.1704 3.960025 0.3890944 -2.520256 0.04037585 4.195069 -19.76708 5.296232 -0 30.91283 -0 -7.779791 -10.75102 -2.836167 -6.263748 12.16327 -20.15846 -0 7.669673 -0 7.974762 -17.90364 24.25708 -2.033989 -2.520098 5.191085 3.014449 9.454148 -7.49782 1.37516 22.23865 5.81496 2.112226 -27.27659 9.676846 4.558965 -20.35512 11.58204 85.86711 34.11435 -17.6375 -0 0 16.86871 -7.655077 7.351829 3.241906 5.874911 -19.3017 0.9177224 -96.62062 22.94684 25.59486 0 0 -5.756219 13.59148 17.29248 -4.016211
0.7334403 102.9114 6.280932 0.2832243 -1.710159 0.02481041 4.367856 -22.20566 5.454593 -0 30.29906 -0 -7.299897 -10.28558 -2.612009 -6.350614 12.76065 -20.2493 -0 7.362614 -0 7.527641 -19.05678 24.04568 -2.085307 -2.586566 5.159487 3.00751 9.394022 -7.485767 1.420077 22.16535 5.946976 2.243626 -27.35532 9.838041 4.847008 -20.23987 11.5074 85.79084 34.44794 -17.88391 -0 0 16.85279 -7.034185 7.314064 2.977324 5.969686 -19.27899 0.8732959 -96.82871 23.50757 25.61605 0 0 -6.318855 13.41857 17.33981 -3.473293
0.958409 102.5612 8.968112 -0.02660501 -0.8456753 0.03209993 4.910204 -25.57222 4.749291 -0 26.67958 -0 -7.516015 -8.539626 -2.025442 -6.240703 13.15895 -19.14417 -0 8.338841 -0 7.974017 -19.8026 23.35618 -2.288646 -2.755394 5.136168 3.008392 8.963778 -7.359911 1.448811 22.29963 6.026432 2.331334 -27.563 10.05163 5.42894 -20.13176 11.26995 85.10975 35.16984 -17.74878 -0 0 17.36193 -5.863968 7.069637 2.56954 5.978544 -18.8205 1.119991 -98.11934 25.1855 26.74846 0 0 -5.588556 12.54675 17.98049 -2.01923
1.178018 102.19 11.84078 -0.2241992 0.1568375 0.09213459 5.366419 -27.99436 4.875492 -0 24.78392 -0 -7.252097 -7.896626 -1.802218 -6.210918 13.43554 -18.77337 -0 8.652684 -0 8.100402 -20.42798 22.9813 -2.326699 -2.788943 5.097436 2.976357 8.929281 -7.357853 1.460935 22.19899 6.174439 2.493853 -27.52332 10.12141 5.705205 -19.97827 11.21351 85.08496 35.51675 -18.02398 -0 0 17.24359 -5.481401 7.147154 2.491279 6.046782 -18.8506 0.9825239 -98.2128 25.7696 26.72708 0 0 -6.428929 12.07004 17.92145 -1.103688
1.380405 101.8091 15.12784 -0.5458363 1.236754 0.2327963 6.036647 -30.49399 4.689186 -0 21.62065 -0 -7.370578 -6.556034 -1.479624 -6.057053 13.68338 -17.8276 -0 10.02321 -0 8.272215 -20.71912 22.13451 -2.42891 -2.81264 5.01206 2.957838 8.725512 -7.332217 1.413112 22.18193 6.335712 2.681547 -27.43195 10.1011 6.105127 -19.70832 11.11117 84.85536 36.04463 -18.21228 -0 0 17.11299 -5.165108 7.261772 2.58591 6.037717 -18.7547 0.8680802 -98.61408 26.89952 27.02493 0 0 -7.035886 10.87116 17.97737 0.6758745
1.560604 101.4602 18.79538 -0.8482477 2.01252 0.4514452 6.661949 -31.84985 4.672928 -0 19.50616 -0 -7.653903 -5.528474 -1.3263 -5.864329 13.81781 -17.05314 -0 11.85809 -0 8.240089 -20.48295 21.27879 -2.427516 -2.762538 4.938086 2.934532 8.767913 -7.386667 1.367588 22.02675 6.496511 2.866502 -27.22583 10.00925 6.297853 -19.46044 11.12603 84.96194 36.29657 -18.55884 -0 0 16.71194 -5.322643 7.556217 2.830718 6.081485 -18.92657 0.6038242 -98.2466 27.20348 26.5931 0 0 -8.289812 10.20371 17.62757 1.713004
1.705141 101.2168 22.96344 -1.239965 2.549427 0.7556256 7.33614 -32.42351 4.497098 -0 17.54137 -0 -8.308825 -4.228325 -1.196236 -5.535281 13.91952 -16.04491 -0 14.99814 -0 7.642302 -19.69247 19.88614 -2.458903 -2.677383 4.813013 2.937824 8.716403 -7.44471 1.272037 21.93328 6.654023 3.055034 -26.95722 9.817618 6.522284 -19.11384 11.13529 84.978 36.57711 -18.86263 -0 0 16.22263 -5.682249 7.904466 3.259729 6.05081 -19.03963 0.3261091 -97.9434 27.75796 26.22483 0 0 -9.416881 9.042648 17.28247 3.270343
1.811497 101.1451 27.60122 -1.636784 2.657583 1.100555 7.924715 -31.84096 4.313543 -0 16.52138 -0 -9.201546 -3.218391 -1.161703 -5.117649 13.79968 -15.08955 -0 19.18579 -0 6.612865 -18.244 18.28669 -2.432695 -2.548442 4.707388 2.95063 8.806959 -7.547033 1.1792 21.77668 6.784388 3.210139 -26.64636 9.588547 6.606453 -18.79514 11.21536 85.14369 36.65444 -19.18704 -0 0 15.61658 -6.355857 8.339013 3.775573 6.049983 -19.29073 0.01935947 -97.18791 27.70866 25.41945 0 0 -10.69043 8.353351 16.71032 4.148272
1.881763 101.3273 32.68128 -2.033954 2.398106 1.430924 8.416653 -30.22 4.077312 -0 16.12995 -0 -10.2131 -2.522543 -1.19048 -4.602527 13.30724 -14.10837 -0 24.61555 -0 4.995009 -16.17029 16.38411 -2.436942 -2.386906 4.56768 2.992332 8.826454 -7.643005 1.053866 21.69724 6.889262 3.342668 -26.30262 9.287048 6.689283 -18.42069 11.29802 85.21523 36.69529 -19.4213 -0 0 14.97405 -7.200497 8.77352 4.423769 5.966248 -19.46862 -0.2814255 -96.49997 27.79551 24.67641 0 0 -11.71738 7.34441 16.16115 5.31499
1.928433 101.8101 38.08334 -2.326632 1.785433 1.663892 8.715665 -27.64257 3.836615 -0 16.26378 -0 -11.15529 -2.423301 -1.279767 -4.079757 12.15722 -13.18919 -0 30.82942 -0 3.290247 -13.61916 14.61458 -2.41952 -2.200196 4.458625 3.040145 8.917228 -7.743148 0.9310013 21.61627 6.957007 3.432155 -25.95609 8.9705 6.680218 -18.08407 11.41866 85.31111 36.59975 -19.57146 -0 0 14.32015 -8.235462 9.212328 5.123369 5.879742 -19.6871 -0.5549273 -95.63494 27.49137 23.76877 0 0 -12.60456 6.672565 15.51943 5.983646
1.9647 102.6052 43.6671 -2.441606 0.9140548 1.731803 8.771395 -24.30465 3.568588 -0 16.49224 -0 -11.90444 -2.896761 -1.386792 -3.618665 10.14493 -12.29797 -0 37.42852 -0 1.874982 -10.86369 13.23792 -2.443502 -1.989682 4.343895 3.10833 8.9384 -7.807148 0.7895087 21.63191 6.988812 3.486587 -25.60371 8.611148 6.66971 -17.74146 11.54181 85.24983 36.48284 -19.53385 -0 0 13.71855 -9.359048 9.590488 5.909771 5.697395 -19.79452 -0.8027642 -94.90873 27.30898 23.01506 0 0 -13.15443 5.783914 14.94581 6.836434
1.998892 103.666 49.2846 -2.310208 -0.150759 1.603139 8.551009 -20.41816 3.239286 -0 16.45641 -0 -12.45833 -3.785538 -1.453603 -3.283153 7.196227 -11.42963 -0 43.6799 -0 1.283786 -8.278421 12.57258 -2.475577 -1.769431 4.280551 3.168774 8.980239 -7.832415 0.6520911 21.68372 6.984334 3.500495 -25.26839 8.25431 6.607675 -17.46607 11.68149 85.09479 36.31909 -19.29487 -0 0 13.21296 -10.55863 9.91077 6.725213 5.487015 -19.86633 -0.9981416 -94.19658 26.92051 22.31851 0 0 -13.44584 5.12699 14.37203 7.36268
2.031245 104.8949 54.81883 -1.930694 -1.369964 1.298117 8.094327 -16.10375 2.819035 -0 15.92909 -0 -12.88378 -4.820092 -1.442968 -3.04792 3.403915 -10.55778 -0 48.815 -0 1.713442 -6.139631 12.69896 -2.563755 -1.539321 4.244699 3.238643 8.938282 -7.786585 0.5065562 21.83453 6.94683 3.479128 -24.95361 7.88408 6.557018 -17.24057 11.81943 84.68147 36.21141 -18.73801 -0 0 12.86242 -11.74032 10.12396 7.593499 5.182619 -19.79442 -1.147066 -93.6632 26.66684 21.85556 0 0 -13.41857 4.364517 13.90408 7.986616
2.059677 106.1475 60.19028 -1.374605 -2.708474 0.8805814 7.512137 -11.43529 2.335287 -0 14.91128 -0 -13.21844 -5.803133 -1.371469 -2.795752 -0.982369 -9.667452 -0 51.86985 -0 3.03247 -4.556002 13.53289 -2.680613 -1.318755 4.283328 3.287801 8.873476 -7.668101 0.3678067 22.02529 6.884002 3.427937 -24.67423 7.535121 6.485676 -17.12137 11.95604 84.05797 36.16535 -17.86002 -0 0 12.70951 -12.88675 10.24444 8.472756 4.853474 -19.64434 -1.221861 -93.22788 26.33013 21.57623 0 0 -13.16373 3.82116 13.49112 8.356872
2.090263 107.2444 65.35804 -0.7842409 -4.09837 0.4263603 6.959666 -6.463265 1.866581 -0 13.5689 -0 -13.39061 -6.733529 -1.307055 -2.334169 -5.646393 -8.714798 -0 51.87837 -0 4.742593 -3.45362 14.82777 -2.858671 -1.108579 4.373982 3.339072 8.703893 -7.459113 0.22793 22.2895 6.802549 3.351808 -24.44295 7.199471 6.434074 -17.09605 12.08017 83.08776 36.26077 -16.56004 -0 0 12.78589 -13.91813 10.24097 9.378117 4.463026 -19.35307 -1.224644 -92.94985 26.12077 21.53942 0 0 -12.71768 3.312399 13.20276 8.708922
